<?xml version="1.0" encoding="UTF-8"?>
<!-- Generator: visioncortex VTracer 0.6.3 -->
<svg version="1.1" xmlns="http://www.w3.org/2000/svg" width="200" height="200">
<path d="M0 0 C0.69 -0 1.38 -0.01 2.09 -0.01 C12.91 -0.01 21.94 1.3 32 5.44 C33.37 5.7 33.37 5.7 34.77 5.97 C37 6.44 37 6.44 39 8.44 C39.99 8.65 39.99 8.65 41 8.88 C43 9.44 43 9.44 45 12.44 C45.99 12.77 46.98 13.1 48 13.44 C48.5 14.92 48.5 14.92 49 16.44 C49.96 16.65 49.96 16.65 50.94 16.88 C51.62 17.06 52.3 17.25 53 17.44 C53.7 18.75 54.37 20.09 55 21.44 C55.66 21.93 56.32 22.43 57 22.94 C59.28 24.65 59.77 25.9 61 28.44 C61.92 29.82 62.86 31.2 63.81 32.56 C72.68 45.83 76.62 59.39 76.52 75.36 C76.52 76.67 76.53 77.98 76.54 79.33 C76.56 82.88 76.55 86.43 76.54 89.99 C76.53 93.72 76.54 97.45 76.54 101.19 C76.55 107.44 76.54 113.7 76.52 119.95 C76.5 127.18 76.51 134.41 76.53 141.63 C76.55 147.86 76.55 154.08 76.54 160.31 C76.53 164.02 76.53 167.73 76.55 171.44 C76.56 175.57 76.54 179.69 76.52 183.81 C76.53 185.04 76.53 186.26 76.54 187.53 C76.53 188.65 76.52 189.77 76.51 190.93 C76.51 191.9 76.5 192.87 76.5 193.88 C75.84 197.27 74.79 198.43 72 200.44 C69.24 200.93 69.24 200.93 66.01 200.92 C64.79 200.92 63.56 200.93 62.3 200.94 C60.95 200.92 59.59 200.91 58.24 200.89 C56.81 200.89 55.38 200.89 53.95 200.89 C50.07 200.89 46.19 200.87 42.31 200.84 C38.26 200.82 34.21 200.82 30.15 200.81 C22.48 200.8 14.81 200.77 7.13 200.73 C-1.61 200.68 -10.34 200.66 -19.08 200.64 C-37.05 200.6 -55.03 200.53 -73 200.44 C-74.65 196.81 -75.25 193.96 -75.27 189.98 C-75.28 188.9 -75.29 187.82 -75.3 186.7 C-75.31 185.52 -75.31 184.34 -75.31 183.13 C-75.31 181.88 -75.32 180.63 -75.33 179.34 C-75.35 175.92 -75.36 172.5 -75.37 169.07 C-75.37 166.92 -75.38 164.78 -75.38 162.63 C-75.41 155.11 -75.42 147.6 -75.43 140.08 C-75.43 133.12 -75.46 126.15 -75.5 119.19 C-75.54 113.18 -75.55 107.18 -75.55 101.17 C-75.55 97.6 -75.56 94.02 -75.59 90.45 C-75.79 63.6 -72.54 41.31 -52.94 21.34 C-51.72 20.15 -50.5 18.97 -49.25 17.81 C-47.78 16.5 -47.78 16.5 -48 14.44 C-47.01 14.11 -46.02 13.78 -45 13.44 C-44.67 12.78 -44.34 12.12 -44 11.44 C-43.01 11.11 -42.02 10.78 -41 10.44 C-40.24 9.78 -39.47 9.12 -38.69 8.44 C-35.69 6.21 -33.67 5.78 -30 5.44 C-30 4.78 -30 4.12 -30 3.44 C-28.52 3.25 -28.52 3.25 -27 3.06 C-24.41 2.71 -22.22 2.2 -19.69 1.43 C-13.25 -0.2 -6.6 0 0 0 Z " fill="#085FAB" transform="translate(99,-0.4375)"/>
<path d="M0 0 C6.42 4.24 10.58 9.61 13 16.94 C13.34 20.58 13.34 20.58 13.29 24.4 C13.29 25.08 13.28 25.76 13.28 26.46 C13.26 28.6 13.23 30.74 13.19 32.88 C13.17 34.34 13.16 35.8 13.15 37.26 C13.11 40.82 13.06 44.38 13 47.94 C16.96 47.94 20.92 47.94 25 47.94 C24.97 47.02 24.95 46.1 24.92 45.16 C24.83 41.71 24.77 38.26 24.73 34.81 C24.7 33.33 24.67 31.85 24.62 30.36 C24.37 21.43 24.33 13.39 30 5.94 C32.51 3.61 35.05 1.68 38 -0.06 C38.59 -0.44 39.18 -0.81 39.79 -1.2 C45.46 -3.42 53.77 -3.01 59.59 -1.3 C61.53 -0.36 63.24 0.67 65 1.94 C66.36 2.83 66.36 2.83 67.75 3.75 C72.42 8.29 74.85 13.54 75.14 20.03 C75.15 21.25 75.15 22.47 75.16 23.72 C75.17 24.73 75.17 24.73 75.18 25.76 C75.19 27.99 75.2 30.21 75.2 32.44 C75.21 33.58 75.21 33.58 75.21 34.75 C75.23 38.81 75.24 42.86 75.24 46.91 C75.25 51.07 75.27 55.23 75.3 59.39 C75.32 62.61 75.32 65.83 75.32 69.05 C75.33 70.58 75.33 72.11 75.35 73.64 C75.42 83.25 75.4 93.14 71 101.94 C70.34 101.94 69.68 101.94 69 101.94 C69 103.26 69 104.58 69 105.94 C68.34 105.94 67.68 105.94 67 105.94 C66.76 106.65 66.52 107.37 66.28 108.11 C64.8 111.38 62.97 113.54 60.56 116.19 C59.78 117.06 59 117.93 58.19 118.83 C56 120.94 56 120.94 53 121.94 C53 122.6 53 123.26 53 123.94 C44.77 130.06 34.32 135.06 23.94 135.07 C22.98 135.07 22.01 135.07 21.02 135.07 C20.03 135.07 19.03 135.07 18 135.06 C16.5 135.07 16.5 135.07 14.98 135.07 C14.01 135.07 13.05 135.07 12.06 135.07 C11.19 135.07 10.31 135.07 9.41 135.07 C7.14 134.94 5.18 134.57 3 133.94 C3 133.28 3 132.62 3 131.94 C1.73 131.78 1.73 131.78 0.44 131.62 C-11.17 129.3 -20.06 121.22 -27 111.94 C-33.01 102.83 -37.23 94.43 -37.29 83.29 C-37.3 82.56 -37.3 81.83 -37.31 81.08 C-37.33 78.69 -37.33 76.3 -37.34 73.91 C-37.34 72.24 -37.35 70.56 -37.36 68.89 C-37.37 65.38 -37.37 61.88 -37.37 58.38 C-37.37 53.9 -37.4 49.43 -37.43 44.96 C-37.45 41.5 -37.46 38.05 -37.46 34.59 C-37.46 32.94 -37.47 31.29 -37.48 29.64 C-37.63 12.32 -37.63 12.32 -31.07 4.7 C-30.43 4.16 -29.79 3.62 -29.12 3.06 C-28.49 2.51 -27.85 1.95 -27.2 1.38 C-19.59 -3.63 -8.08 -4.17 0 0 Z " fill="#F7F7F6" transform="translate(81,46.0625)"/>
<path d="M0 0 C0.69 -0 1.38 -0.01 2.09 -0.01 C12.91 -0.01 21.94 1.3 32 5.44 C33.37 5.7 33.37 5.7 34.77 5.97 C37 6.44 37 6.44 39 8.44 C39.99 8.65 39.99 8.65 41 8.88 C43 9.44 43 9.44 45 12.44 C45.99 12.77 46.98 13.1 48 13.44 C48.5 14.92 48.5 14.92 49 16.44 C49.96 16.65 49.96 16.65 50.94 16.88 C51.62 17.06 52.3 17.25 53 17.44 C53.7 18.75 54.37 20.09 55 21.44 C55.66 21.93 56.32 22.43 57 22.94 C59.28 24.65 59.77 25.9 61 28.44 C61.92 29.82 62.86 31.2 63.81 32.56 C74.11 47.97 76.7 62.28 76 80.44 C75.01 80.44 74.02 80.44 73 80.44 C72.81 78.74 72.81 78.74 72.62 77 C72.42 75.82 72.21 74.65 72 73.44 C71.34 73.11 70.68 72.78 70 72.44 C68.88 67.08 68.92 61.89 69 56.44 C65.37 56.44 61.74 56.44 58 56.44 C57.01 54.46 57.01 54.46 56 52.44 C55.15 51.8 54.31 51.16 53.44 50.5 C51 48.44 51 48.44 50 43.44 C40.43 43.44 30.86 43.44 21 43.44 C21 44.1 21 44.76 21 45.44 C17.53 45.93 17.53 45.93 14 46.44 C14 47.43 14 48.42 14 49.44 C13.01 49.44 12.02 49.44 11 49.44 C10.5 50.43 10.5 50.43 10 51.44 C9.34 51.11 8.68 50.78 8 50.44 C7.01 53.41 7.01 53.41 6 56.44 C3.77 56.21 1.54 55.97 -0.68 55.7 C-2.37 55.51 -4.06 55.37 -5.75 55.25 C-9.24 53.99 -10.77 51.31 -13 48.44 C-13.99 47.78 -14.98 47.12 -16 46.44 C-15.67 44.46 -15.34 42.48 -15 40.44 C-15.49 40.76 -15.98 41.09 -16.48 41.43 C-20.04 42.86 -23.48 42.65 -27.25 42.56 C-28 42.55 -28.74 42.54 -29.51 42.54 C-31.34 42.51 -33.17 42.48 -35 42.44 C-35 41.78 -35 41.12 -35 40.44 C-37.64 40.77 -40.28 41.1 -43 41.44 C-43 42.43 -43 43.42 -43 44.44 C-43.99 44.44 -44.98 44.44 -46 44.44 C-46.33 45.76 -46.66 47.08 -47 48.44 C-48.32 48.44 -49.64 48.44 -51 48.44 C-50.67 49.76 -50.34 51.08 -50 52.44 C-51.32 53.1 -52.64 53.76 -54 54.44 C-54 55.43 -54 56.42 -54 57.44 C-54.66 57.44 -55.32 57.44 -56 57.44 C-56.06 58.22 -56.12 59.01 -56.19 59.81 C-56.94 63.15 -57.83 65.06 -59.47 67.98 C-62.26 73.47 -62.93 78.29 -63.25 84.38 C-63.32 85.39 -63.39 86.4 -63.46 87.44 C-64.25 99.76 -64.65 112.1 -65 124.44 C-65.33 124.44 -65.66 124.44 -66 124.44 C-66 122.79 -66 121.14 -66 119.44 C-67.98 119.93 -67.98 119.93 -70 120.44 C-70 122.09 -70 123.74 -70 125.44 C-70.33 125.44 -70.66 125.44 -71 125.44 C-71.66 131.71 -72.32 137.98 -73 144.44 C-73.33 144.44 -73.66 144.44 -74 144.44 C-74.78 126.75 -75.19 109.05 -75.34 91.35 C-75.36 89.23 -75.39 87.1 -75.43 84.97 C-75.86 61.19 -71.29 41.57 -55 23.44 C-53.12 21.52 -51.22 19.64 -49.25 17.81 C-47.78 16.5 -47.78 16.5 -48 14.44 C-47.01 14.11 -46.02 13.78 -45 13.44 C-44.67 12.78 -44.34 12.12 -44 11.44 C-43.01 11.11 -42.02 10.78 -41 10.44 C-40.24 9.78 -39.47 9.12 -38.69 8.44 C-35.69 6.21 -33.67 5.78 -30 5.44 C-30 4.78 -30 4.12 -30 3.44 C-28.52 3.25 -28.52 3.25 -27 3.06 C-24.41 2.71 -22.22 2.2 -19.69 1.43 C-13.25 -0.2 -6.6 0 0 0 Z " fill="#0172CA" transform="translate(99,-0.4375)"/>
<path d="M0 0 C1.95 0.95 3.66 1.98 5.41 3.24 C6.78 4.14 6.78 4.14 8.16 5.05 C13.84 10.57 15.5 16.62 15.65 24.33 C15.68 25.57 15.71 26.8 15.73 28.07 C15.82 33.73 15.88 39.4 15.93 45.06 C15.96 48.04 16 51.01 16.07 53.99 C16.78 85.45 16.78 85.45 7.41 97.24 C6.75 98.23 6.09 99.22 5.41 100.24 C4.75 100.24 4.09 100.24 3.41 100.24 C3.03 101.13 3.03 101.13 2.63 102.03 C-2.65 111.62 -15.37 117.21 -25.28 120.42 C-30.76 121.79 -36.08 121.82 -41.71 121.74 C-42.81 121.76 -43.92 121.77 -45.05 121.79 C-52.36 121.75 -58.03 120.48 -64.59 117.24 C-64.59 116.91 -64.59 116.58 -64.59 116.24 C-61.95 116.24 -59.31 116.24 -56.59 116.24 C-56.9 115.31 -57.2 114.39 -57.52 113.43 C-58.21 111.37 -58.9 109.3 -59.59 107.24 C-61.07 106.75 -61.07 106.75 -62.59 106.24 C-62.59 105.58 -62.59 104.92 -62.59 104.24 C-63.25 104.24 -63.91 104.24 -64.59 104.24 C-65.86 102.77 -67.14 101.29 -68.35 99.76 C-69.6 98.16 -69.6 98.16 -71.34 96.62 C-72.89 94.91 -73.03 93.46 -73.59 91.24 C-74.08 90.87 -74.58 90.51 -75.1 90.13 C-77.48 87.11 -76.98 83.73 -76.9 80.05 C-76.9 79.32 -76.9 78.59 -76.91 77.84 C-76.86 72.69 -75.99 68.2 -74.59 63.24 C-73.93 63.24 -73.27 63.24 -72.59 63.24 C-72.34 62.5 -72.09 61.76 -71.84 60.99 C-70.48 58.01 -68.92 56.5 -66.59 54.24 C-66.15 53.22 -66.15 53.22 -65.71 52.18 C-64.01 49.25 -61.63 48.51 -58.59 47.24 C-57.93 47.24 -57.27 47.24 -56.59 47.24 C-56.59 45.92 -56.59 44.6 -56.59 43.24 C-53.95 43.24 -51.31 43.24 -48.59 43.24 C-48.59 44.89 -48.59 46.54 -48.59 48.24 C-52.05 48.74 -52.05 48.74 -55.59 49.24 C-55.59 50.23 -55.59 51.22 -55.59 52.24 C-57.22 53.29 -58.89 54.29 -60.59 55.24 C-60.92 55.9 -61.25 56.56 -61.59 57.24 C-62.58 57.24 -63.57 57.24 -64.59 57.24 C-64.59 57.9 -64.59 58.56 -64.59 59.24 C-65.25 59.24 -65.91 59.24 -66.59 59.24 C-66.92 61.55 -67.25 63.86 -67.59 66.24 C-68.25 66.24 -68.91 66.24 -69.59 66.24 C-69.5 69.62 -69.39 72.99 -69.27 76.37 C-69.25 77.32 -69.23 78.27 -69.21 79.25 C-69 84.69 -68.43 88.46 -65.59 93.24 C-65.59 93.9 -65.59 94.56 -65.59 95.24 C-65.03 95.47 -64.47 95.7 -63.9 95.93 C-61.59 97.24 -61.59 97.24 -59.46 99.62 C-53.15 105.38 -45.89 106.93 -37.49 106.64 C-32.47 105.96 -27.58 104.34 -24.03 100.61 C-22.59 99.24 -22.59 99.24 -19.59 99.24 C-18.93 97.26 -18.27 95.28 -17.59 93.24 C-16.93 93.24 -16.27 93.24 -15.59 93.24 C-15.46 92.71 -15.34 92.17 -15.21 91.62 C-14.46 88.78 -13.53 86.02 -12.59 83.24 C-13.58 82.75 -13.58 82.75 -14.59 82.24 C-14.26 81.91 -13.93 81.58 -13.59 81.24 C-13.3 76.36 -13.99 72.82 -15.59 68.24 C-15.71 65.37 -15.71 65.37 -15.59 63.24 C-16.58 63.24 -17.57 63.24 -18.59 63.24 C-19 62.54 -19.41 61.84 -19.84 61.12 C-23.49 55.12 -27.99 52.34 -34.59 50.24 C-34.71 45.73 -34.8 41.21 -34.86 36.69 C-34.89 35.16 -34.92 33.63 -34.96 32.1 C-35.21 23.05 -35.37 14.78 -29.59 7.24 C-27.07 4.91 -24.54 2.98 -21.59 1.24 C-20.99 0.87 -20.4 0.49 -19.79 0.11 C-14.13 -2.12 -5.81 -1.7 0 0 Z " fill="#FAFBFA" transform="translate(140.5859375,44.7578125)"/>
<path d="M0 0 C6.01 3.16 10.62 7.32 13.06 13.75 C15.27 21.94 14.91 28.62 10.75 36.1 C7.3 41.06 3.52 44.8 -2.38 46.38 C-3.2 46.4 -4.03 46.42 -4.88 46.44 C-4.88 47.1 -4.88 47.76 -4.88 48.44 C-14.73 49.03 -20.18 47.78 -28.12 42.12 C-33.48 36.89 -35.98 31.22 -36.12 23.75 C-36.04 16.37 -34.2 9.77 -28.88 4.44 C-28.22 4.44 -27.56 4.44 -26.88 4.44 C-26.88 3.78 -26.88 3.12 -26.88 2.44 C-18.51 -2.4 -9.14 -3.6 0 0 Z " fill="#EF8F0E" transform="translate(110.875,95.5625)"/>
<path d="M0 0 C0.33 0 0.66 0 1 0 C1.48 7.03 0.17 14.67 -3 21 C-3.66 21 -4.32 21 -5 21 C-5 22.32 -5 23.64 -5 25 C-5.66 25 -6.32 25 -7 25 C-7.36 26.08 -7.36 26.08 -7.72 27.17 C-9.2 30.44 -11.03 32.6 -13.44 35.25 C-14.22 36.12 -15 36.99 -15.81 37.89 C-18 40 -18 40 -21 41 C-21 41.66 -21 42.32 -21 43 C-29.23 49.13 -39.68 54.12 -50.06 54.13 C-51.02 54.13 -51.99 54.14 -52.98 54.14 C-53.97 54.13 -54.97 54.13 -56 54.12 C-57 54.13 -58 54.13 -59.02 54.14 C-59.99 54.14 -60.95 54.13 -61.94 54.13 C-62.81 54.13 -63.69 54.13 -64.59 54.13 C-66.86 54.01 -68.82 53.64 -71 53 C-71 52.34 -71 51.68 -71 51 C-71.85 50.9 -72.69 50.79 -73.56 50.69 C-85.17 48.37 -94.06 40.29 -101 31 C-106.2 23.11 -111.43 14.83 -111.12 5.06 C-111.11 4.29 -111.09 3.52 -111.07 2.72 C-111.05 2.15 -111.02 1.59 -111 1 C-107.87 2.56 -107.36 5.3 -105.94 8.44 C-100.97 18.78 -94.5 26.13 -84 31 C-82.62 31.71 -81.25 32.42 -79.88 33.12 C-78.59 33.77 -77.3 34.39 -76 35 C-75.03 35.52 -74.05 36.05 -73.05 36.59 C-67.7 38.85 -62.02 38.47 -56.31 38.44 C-55.2 38.46 -54.1 38.48 -52.96 38.5 C-42.12 38.49 -32.61 35.78 -23.62 29.69 C-23.04 29.3 -22.45 28.91 -21.84 28.52 C-17.39 25.5 -14.25 22.24 -11 18 C-10.34 18 -9.68 18 -9 18 C-8.74 17.32 -8.49 16.63 -8.23 15.93 C-6.81 12.55 -5.13 9.4 -3.38 6.19 C-2.89 5.29 -2.89 5.29 -2.39 4.38 C-1.6 2.92 -0.8 1.46 0 0 Z " fill="#F9C60F" transform="translate(155,127)"/>
<path d="M0 0 C1.01 3.34 1.12 6.37 1.1 9.86 C1.09 10.97 1.09 12.09 1.09 13.24 C1.08 14.98 1.08 14.98 1.06 16.75 C1.06 17.92 1.05 19.1 1.05 20.31 C1.04 23.21 1.02 26.1 1 29 C2.32 28.01 3.64 27.02 5 26 C5 27.65 5 29.3 5 31 C5.93 30.94 6.86 30.88 7.81 30.81 C11 31 11 31 12.62 32.38 C13.08 32.91 13.53 33.45 14 34 C14.68 34.23 15.36 34.45 16.06 34.69 C19.32 36.9 19.27 40.25 20 44 C20.92 44.15 20.92 44.15 21.86 44.3 C24.88 45.29 25.68 47.34 27.17 50.02 C29.01 54.4 29.11 58.61 29.06 63.31 C29.05 64.38 29.04 65.45 29.04 66.55 C29.02 67.36 29.01 68.17 29 69 C28.01 69.5 28.01 69.5 27 70 C25.97 72.32 24.97 74.65 24 77 C23.34 77.99 22.68 78.98 22 80 C21.34 80 20.68 80 20 80 C20.12 80.91 20.25 81.81 20.38 82.75 C20.19 84.36 20.19 84.36 20 86 C17.19 88.06 17.19 88.06 14 90 C12.21 92.43 12.21 92.43 11 95 C10.33 96.33 9.67 97.67 9 99 C4.83 99.09 0.67 99.14 -3.5 99.19 C-4.67 99.21 -5.85 99.24 -7.05 99.26 C-13.73 99.32 -19.02 99.11 -25 96 C-25.33 95.01 -25.66 94.02 -26 93 C-27.48 92.5 -27.48 92.5 -29 92 C-29 91.34 -29 90.68 -29 90 C-29.66 90 -30.32 90 -31 90 C-32.28 88.53 -33.55 87.05 -34.76 85.52 C-36.01 83.91 -36.01 83.91 -37.75 82.38 C-39.3 80.67 -39.45 79.22 -40 77 C-40.5 76.63 -41 76.27 -41.51 75.89 C-43.89 72.87 -43.39 69.49 -43.31 65.81 C-43.32 65.08 -43.32 64.35 -43.32 63.6 C-43.27 58.45 -42.41 53.95 -41 49 C-40.34 49 -39.68 49 -39 49 C-38.75 48.26 -38.5 47.52 -38.25 46.75 C-36.9 43.77 -35.33 42.26 -33 40 C-32.57 38.98 -32.57 38.98 -32.12 37.94 C-30.43 35.01 -28.05 34.27 -25 33 C-24.34 33 -23.68 33 -23 33 C-23 31.68 -23 30.36 -23 29 C-20.36 29 -17.72 29 -15 29 C-15 30.65 -15 32.3 -15 34 C-18.47 34.5 -18.47 34.5 -22 35 C-22 35.99 -22 36.98 -22 38 C-23.64 39.05 -25.3 40.05 -27 41 C-27.33 41.66 -27.66 42.32 -28 43 C-28.99 43 -29.98 43 -31 43 C-31 43.66 -31 44.32 -31 45 C-31.66 45 -32.32 45 -33 45 C-33.33 47.31 -33.66 49.62 -34 52 C-34.66 52 -35.32 52 -36 52 C-35.92 55.38 -35.81 58.75 -35.69 62.12 C-35.66 63.08 -35.64 64.03 -35.62 65.01 C-35.41 70.45 -34.85 74.22 -32 79 C-32 79.66 -32 80.32 -32 81 C-31.44 81.23 -30.89 81.45 -30.31 81.69 C-28 83 -28 83 -25.88 85.38 C-19.57 91.14 -12.31 92.69 -3.91 92.39 C1.11 91.71 6 90.1 9.56 86.36 C11 85 11 85 14 85 C14.66 83.02 15.32 81.04 16 79 C16.66 79 17.32 79 18 79 C18.12 78.46 18.25 77.93 18.38 77.38 C19.12 74.54 20.05 71.78 21 69 C20.01 68.5 20.01 68.5 19 68 C19.33 67.67 19.66 67.34 20 67 C20.29 62.12 19.59 58.58 18 54 C17.88 51.12 17.88 51.12 18 49 C17.01 49 16.02 49 15 49 C14.59 48.3 14.17 47.6 13.75 46.88 C10.1 40.87 5.59 38.1 -1 36 C-1.02 31.36 -1.04 26.71 -1.05 22.07 C-1.06 20.49 -1.07 18.91 -1.08 17.33 C-1.09 15.05 -1.09 12.78 -1.1 10.51 C-1.1 9.81 -1.11 9.1 -1.11 8.37 C-1.11 5.3 -0.98 2.94 0 0 Z " fill="#F3F3F2" transform="translate(107,59)"/>
<path d="M0 0 C1.66 0.75 3.32 1.5 4.98 2.25 C10.11 4.16 15.16 4.19 20.56 4.19 C21.36 4.19 22.16 4.19 22.98 4.19 C31.57 4.1 39.93 3.14 48 0 C48.55 6.6 47.95 11.56 44 17 C40.53 20.82 37.54 23.59 32.5 24.94 C31.67 24.96 30.85 24.98 30 25 C30 25.66 30 26.32 30 27 C20.14 27.59 14.7 26.34 6.75 20.69 C2.74 16.77 0.23 13.71 -0.24 8.11 C-0.25 5.39 -0.18 2.71 0 0 Z " fill="#C2630B" transform="translate(76,117)"/>
<path d="M0 0 C3.18 1.65 5.38 3.75 7 7 C7.37 12.61 7.16 16.15 4 21 C0.11 24.57 -3.18 24.67 -8.3 24.56 C-12.2 23.75 -13.72 21.89 -15.98 18.73 C-18.21 14.96 -18.37 12.42 -18 8 C-13.61 -0.03 -8.71 -1.25 0 0 Z " fill="#080808" transform="translate(74,63)"/>
<path d="M0 0 C3.26 1.4 5.21 2.92 7 6 C8.09 11.17 7.87 15.41 5.31 20.06 C0.99 23.68 -3.19 24.66 -8.77 24.49 C-12.25 23.72 -13.9 22.1 -15.96 19.27 C-17.99 14.86 -18.02 10.7 -17 6 C-13.68 -0.96 -6.94 -1.45 0 0 Z " fill="#060606" transform="translate(136,63)"/>
<path d="M0 0 C2.06 0.44 2.06 0.44 4 1 C3.35 1.98 2.71 2.97 2.04 3.98 C-1.26 10.63 -0.61 18.06 -0.61 25.31 C-0.62 26.89 -0.64 28.47 -0.66 30.05 C-0.7 34.19 -0.72 38.33 -0.74 42.46 C-0.76 46.69 -0.8 50.92 -0.84 55.15 C-0.91 63.43 -0.97 71.72 -1 80 C-1.33 80 -1.66 80 -2 80 C-2.33 70.76 -2.66 61.52 -3 52 C-3.66 51.67 -4.32 51.34 -5 51 C-5.05 51.99 -5.1 52.99 -5.15 54.01 C-5.64 63.11 -6.55 72 -8 81 C-8.33 81 -8.66 81 -9 81 C-9 74.07 -9 67.14 -9 60 C-8.34 60 -7.68 60 -7 60 C-7.02 59.12 -7.05 58.25 -7.07 57.34 C-7.25 44.82 -6.22 32.46 -5 20 C-4.92 19.14 -4.83 18.29 -4.75 17.4 C-4.63 16.21 -4.63 16.21 -4.5 15 C-4.39 13.97 -4.39 13.97 -4.29 12.91 C-3.87 10.14 -3 7.6 -2 5 C-1.34 5 -0.68 5 0 5 C-0.28 4.04 -0.28 4.04 -0.56 3.06 C-0.71 2.38 -0.85 1.7 -1 1 C-0.67 0.67 -0.34 0.34 0 0 Z " fill="#2677BB" transform="translate(45,52)"/>
<path d="M0 0 C0.33 0 0.66 0 1 0 C1.2 10.42 1.38 20.85 1.55 31.27 C1.62 36.11 1.7 40.95 1.8 45.79 C1.89 50.46 1.97 55.14 2.03 59.81 C2.06 61.59 2.09 63.37 2.13 65.15 C2.19 67.65 2.22 70.15 2.25 72.66 C2.27 73.38 2.29 74.11 2.31 74.86 C2.34 80.18 1.09 84.11 -1 89 C-2.32 89 -3.64 89 -5 89 C-5.1 89.78 -5.21 90.57 -5.31 91.38 C-6 94 -6 94 -9 96 C-9.99 96 -10.98 96 -12 96 C-10.88 93.03 -9.78 90.67 -8 88 C-7.34 88 -6.68 88 -6 88 C-6 86.68 -6 85.36 -6 84 C-5.34 84 -4.68 84 -4 84 C-3.87 83.16 -3.73 82.31 -3.6 81.45 C-3.42 80.35 -3.24 79.25 -3.06 78.12 C-2.89 77.03 -2.71 75.94 -2.54 74.82 C-2 72 -2 72 -1 70 C-0.88 67.78 -0.82 65.57 -0.79 63.35 C-0.78 62.66 -0.77 61.98 -0.76 61.28 C-0.73 59.02 -0.71 56.75 -0.68 54.49 C-0.66 52.93 -0.64 51.36 -0.62 49.79 C-0.57 45.67 -0.52 41.54 -0.47 37.41 C-0.42 33.2 -0.36 28.99 -0.31 24.79 C-0.2 16.52 -0.1 8.26 0 0 Z " fill="#386FA3" transform="translate(156,64)"/>
<path d="M0 0 C0.33 0 0.66 0 1 0 C1 44.55 1 89.1 1 135 C0.67 135 0.34 135 0 135 C0 90.45 0 45.9 0 0 Z " fill="#1475D2" transform="translate(176,61)"/>
<path d="M0 0 C0.33 0 0.66 0 1 0 C1 42.9 1 85.8 1 130 C0.67 130 0.34 130 0 130 C0 87.1 0 44.2 0 0 Z " fill="#1765A5" transform="translate(22,65)"/>
<path d="M0 0 C0.33 0 0.66 0 1 0 C1 10.23 1 20.46 1 31 C-7 35 -7 35 -9 35 C-9 35.66 -9 36.32 -9 37 C-10.14 38.02 -10.14 38.02 -11.31 39.06 C-16.92 45.2 -17.51 52.97 -18 61 C-18.33 61 -18.66 61 -19 61 C-19.11 54.56 -18.96 48.37 -18 42 C-17.34 42 -16.68 42 -16 42 C-16.5 40.52 -16.5 40.52 -17 39 C-16.01 39 -15.02 39 -14 39 C-13.34 37.35 -12.68 35.7 -12 34 C-10.68 34 -9.36 34 -8 34 C-8 33.01 -8 32.02 -8 31 C-4.04 30.5 -4.04 30.5 0 30 C0 20.1 0 10.2 0 0 Z " fill="#DED9D0" transform="translate(93,63)"/>
<path d="M0 0 C1.32 0.33 2.64 0.66 4 1 C4.33 2.32 4.66 3.64 5 5 C8.3 4.67 11.6 4.34 15 4 C15 4.99 15 5.98 15 7 C15.66 7 16.32 7 17 7 C17.33 6.34 17.66 5.68 18 5 C18.66 5.66 19.32 6.32 20 7 C19.67 7.66 19.34 8.32 19 9 C18.01 9.33 17.02 9.66 16 10 C21.44 10.5 21.44 10.5 27 11 C27 11.33 27 11.66 27 12 C17.21 12.59 11.26 11.45 3.56 5.44 C1 3 1 3 0 0 Z " fill="#BE712E" transform="translate(79,132)"/>
<path d="M0 0 C0.66 0 1.32 0 2 0 C3.71 4.98 2.01 8.43 0 13 C-1.32 13 -2.64 13 -4 13 C-4.1 13.78 -4.21 14.57 -4.31 15.38 C-5 18 -5 18 -8 20 C-8.99 20 -9.98 20 -11 20 C-9.88 17.03 -8.78 14.67 -7 12 C-6.34 12 -5.68 12 -5 12 C-5 10.68 -5 9.36 -5 8 C-4.34 8 -3.68 8 -3 8 C-1.59 5.36 -0.63 2.93 0 0 Z " fill="#0A5594" transform="translate(155,140)"/>
<path d="M0 0 C1.77 -0.05 3.54 -0.09 5.31 -0.12 C6.3 -0.15 7.28 -0.17 8.3 -0.2 C11 0 11 0 14 2 C14 2.66 14 3.32 14 4 C9.05 5.44 4.11 5.18 -1 5.19 C-2 5.2 -3 5.21 -4.02 5.22 C-4.99 5.23 -5.95 5.23 -6.94 5.23 C-7.81 5.23 -8.69 5.24 -9.59 5.24 C-12 5 -12 5 -16 3 C-8.08 2.5 -8.08 2.5 0 2 C0 1.34 0 0.68 0 0 Z " fill="#D5B82F" transform="translate(100,176)"/>
<path d="M0 0 C3.03 1.52 3.69 3.95 5.19 6.94 C5.74 8.02 6.29 9.1 6.86 10.21 C7.23 11.13 7.61 12.05 8 13 C7.67 13.66 7.34 14.32 7 15 C6.34 14.67 5.68 14.34 5 14 C5 15.98 5 17.96 5 20 C-0.14 14.16 -0.3 7.39 0 0 Z " fill="#EBC834" transform="translate(44,128)"/>
<path d="M0 0 C0.33 0.99 0.66 1.98 1 3 C2.63 4.66 2.63 4.66 4.56 6.19 C5.2 6.72 5.84 7.25 6.5 7.79 C7 8.19 7.49 8.59 8 9 C7.67 10.32 7.34 11.64 7 13 C6.66 12.54 6.32 12.08 5.97 11.61 C1.34 5.75 -2.9 2.56 -10.4 1.54 C-13.6 1.28 -16.79 1.1 -20 1 C-20 0.67 -20 0.34 -20 0 C-17.04 -0.19 -14.08 -0.38 -11.12 -0.56 C-10.28 -0.62 -9.44 -0.67 -8.57 -0.73 C-7.77 -0.78 -6.96 -0.83 -6.13 -0.88 C-5.02 -0.95 -5.02 -0.95 -3.88 -1.02 C-2 -1 -2 -1 0 0 Z " fill="#2D7CBE" transform="translate(83,43)"/>
<path d="M0 0 C-0.33 1.32 -0.66 2.64 -1 4 C-2.01 3.76 -2.01 3.76 -3.04 3.52 C-10.41 2.22 -19.27 1.27 -25.81 5.44 C-26.89 6.27 -27.96 7.12 -29 8 C-29.99 8.5 -29.99 8.5 -31 9 C-31 7.35 -31 5.7 -31 4 C-27.53 3.51 -27.53 3.51 -24 3 C-24 2.34 -24 1.68 -24 1 C-20.38 0.83 -16.75 0.67 -13.12 0.5 C-12.09 0.45 -11.06 0.4 -10 0.36 C-9.01 0.31 -8.02 0.27 -7.01 0.22 C-6.1 0.18 -5.19 0.13 -4.25 0.09 C-2.83 0.03 -1.42 0 0 0 Z " fill="#2271B3" transform="translate(144,42)"/>
<path d="M0 0 C0.33 0 0.66 0 1 0 C1.45 6.59 0.07 12.74 -2 19 C-2.66 19.66 -3.32 20.32 -4 21 C-3.67 18.69 -3.34 16.38 -3 14 C-4.32 14.33 -5.64 14.66 -7 15 C-5.45 9.52 -2.84 4.89 0 0 Z " fill="#DDC24A" transform="translate(155,127)"/>
<path d="M0 0 C5 3.49 7.92 6.61 9.58 12.54 C10.29 16.7 10.24 20.8 10 25 C9.67 25 9.34 25 9 25 C8.67 21.37 8.34 17.74 8 14 C7.34 14 6.68 14 6 14 C5.34 11.36 4.68 8.72 4 6 C2.35 5.67 0.7 5.34 -1 5 C-0.34 4.67 0.32 4.34 1 4 C0.67 2.68 0.34 1.36 0 0 Z " fill="#DE9038" transform="translate(115,99)"/>
<path d="M0 0 C0.66 0.33 1.32 0.66 2 1 C1.01 2.65 0.02 4.3 -1 6 C-14.86 5.5 -14.86 5.5 -29 5 C-29 4.67 -29 4.34 -29 4 C-28.11 3.98 -28.11 3.98 -27.2 3.96 C-24.47 3.88 -21.73 3.78 -19 3.69 C-18.07 3.66 -17.13 3.64 -16.17 3.62 C-10.11 3.39 -5.6 2.27 0 0 Z " fill="#FBD446" transform="translate(120,162)"/>
<path d="M0 0 C0.33 0.99 0.66 1.98 1 3 C0.67 3.66 0.34 4.32 0 5 C-0.66 5 -1.32 5 -2 5 C-2 5.66 -2 6.32 -2 7 C-2.66 7 -3.32 7 -4 7 C-4 7.66 -4 8.32 -4 9 C-4.66 9 -5.32 9 -6 9 C-6 9.66 -6 10.32 -6 11 C-6.99 11 -7.98 11 -9 11 C-9 11.66 -9 12.32 -9 13 C-10.98 13.33 -12.96 13.66 -15 14 C-13.71 12.62 -12.37 11.29 -11 10 C-10.34 10 -9.68 10 -9 10 C-9 9.34 -9 8.68 -9 8 C-7.29 6.31 -7.29 6.31 -5.06 4.44 C-4.33 3.82 -3.6 3.2 -2.85 2.56 C-1.93 1.79 -1.93 1.79 -1 1 C-0.67 0.67 -0.34 0.34 0 0 Z " fill="#486965" transform="translate(143,160)"/>
<path d="M0 0 C0.33 0 0.66 0 1 0 C1 2.31 1 4.62 1 7 C4.3 7 7.6 7 11 7 C11.33 7.99 11.66 8.98 12 10 C8.04 10 4.08 10 0 10 C0 6.7 0 3.4 0 0 Z " fill="#2B5C81" transform="translate(94,84)"/>
<path d="M0 0 C2.41 2.2 3.87 4.36 5.38 7.25 C7.63 11.43 10.16 15.19 13 19 C11.06 18.19 11.06 18.19 9 17 C8.67 16.01 8.34 15.02 8 14 C6.68 13.67 5.36 13.34 4 13 C3.34 10.03 2.68 7.06 2 4 C1.34 4 0.68 4 0 4 C0 2.68 0 1.36 0 0 Z " fill="#416B69" transform="translate(47,146)"/>
<path d="M0 0 C0.66 0 1.32 0 2 0 C1.74 1.63 1.47 3.25 1.19 4.88 C1.04 5.78 0.89 6.68 0.73 7.62 C0 10 0 10 -3 12 C-3.99 12 -4.98 12 -6 12 C-4.88 9.03 -3.78 6.67 -2 4 C-1.34 4 -0.68 4 0 4 C0 2.68 0 1.36 0 0 Z " fill="#436A6C" transform="translate(150,148)"/>
<path d="M0 0 C0.33 0 0.66 0 1 0 C1 4.95 1 9.9 1 15 C0.34 15 -0.32 15 -1 15 C-1.33 16.65 -1.66 18.3 -2 20 C-3.27 17.46 -2.82 16.64 -2.12 13.94 C-1.01 9.3 -0.45 4.75 0 0 Z " fill="#37626D" transform="translate(156,125)"/>
<path d="M0 0 C2 1 2 1 3.12 4.06 C3.41 5.03 3.7 6 4 7 C3.34 7 2.68 7 2 7 C2.33 9.97 2.66 12.94 3 16 C0.87 11.74 -0.13 8.99 -0.06 4.31 C-0.05 3.5 -0.04 2.7 -0.04 1.86 C-0.02 1.25 -0.01 0.63 0 0 Z " fill="#CFBB56" transform="translate(44,128)"/>
<path d="M0 0 C0.2 0.55 0.41 1.11 0.62 1.68 C0.89 2.4 1.16 3.13 1.44 3.88 C1.7 4.59 1.97 5.31 2.25 6.05 C2.98 8.04 2.98 8.04 4 10 C-0.27 8.42 -2.27 5.49 -5 2 C-2 0 -2 0 0 0 Z " fill="#FEF3C6" transform="translate(60,144)"/>
<path d="M0 0 C-0.33 1.32 -0.66 2.64 -1 4 C-6.61 3.34 -12.22 2.68 -18 2 C-18 1.67 -18 1.34 -18 1 C-15.38 0.83 -12.75 0.67 -10.12 0.5 C-9.01 0.43 -9.01 0.43 -7.86 0.36 C-2.23 0 -2.23 0 0 0 Z " fill="#3783C1" transform="translate(144,42)"/>
<path d="M0 0 C0.58 0.22 1.17 0.43 1.77 0.65 C-0.36 2.99 -2.25 4.57 -5.23 5.65 C-7.36 5.2 -7.36 5.2 -9.23 4.65 C-8.16 3.78 -7.08 2.93 -5.98 2.09 C-5.38 1.61 -4.78 1.14 -4.16 0.65 C-2.23 -0.35 -2.23 -0.35 0 0 Z " fill="#D6ECF9" transform="translate(60.234375,45.34765625)"/>
<path d="M0 0 C2.09 3.45 2.09 3.45 1.69 5.88 C1.46 6.58 1.23 7.28 1 8 C0.65 10 0.32 12 0 14 C-0.33 14 -0.66 14 -1 14 C-1.03 12.42 -1.05 10.83 -1.06 9.25 C-1.07 8.37 -1.09 7.49 -1.1 6.58 C-1.01 4.22 -0.67 2.26 0 0 Z " fill="#DD9336" transform="translate(76,110)"/>
<path d="M0 0 C0.33 0 0.66 0 1 0 C1.25 2.75 1.25 2.75 1 6 C-1 8.38 -1 8.38 -3 10 C-3 6.13 -1.58 3.49 0 0 Z " fill="#DFC8B4" transform="translate(124,124)"/>
<path d="M0 0 C1 4 1 4 1 4 Z " fill="#0373CA" transform="translate(23,60)"/>
<path d="M0 0 C1 4 1 4 1 4 Z " fill="#1066AF" transform="translate(175,57)"/>
<path d="M0 0 C1 4 1 4 1 4 Z " fill="#0373CA" transform="translate(25,52)"/>
<path d="" fill="#1070B9" transform="translate(0,0)"/>
<path d="" fill="#0269C4" transform="translate(0,0)"/>
<path d="" fill="#056AB6" transform="translate(0,0)"/>
<path d="" fill="#0B71C0" transform="translate(0,0)"/>
<path d="" fill="#0274D0" transform="translate(0,0)"/>
<path d="M0 0 C3 1 3 1 3 1 Z " fill="#0371CB" transform="translate(128,3)"/>
<path d="M0 0 C3 1 3 1 3 1 Z " fill="#0175CD" transform="translate(123,1)"/>
<path d="M0 0 C3 1 3 1 3 1 Z " fill="#0076CE" transform="translate(120,0)"/>
<path d="M0 0 C3 1 3 1 3 1 Z " fill="#0078CF" transform="translate(77,0)"/>
<path d="" fill="#0669C0" transform="translate(0,0)"/>
<path d="" fill="#0D69B5" transform="translate(0,0)"/>
<path d="" fill="#0871D1" transform="translate(0,0)"/>
<path d="" fill="#046BC3" transform="translate(0,0)"/>
<path d="" fill="#0177CC" transform="translate(0,0)"/>
<path d="" fill="#0075D1" transform="translate(0,0)"/>
<path d="" fill="#0075D0" transform="translate(0,0)"/>
<path d="" fill="#006FC6" transform="translate(0,0)"/>
<path d="" fill="#0175CE" transform="translate(0,0)"/>
<path d="" fill="#006FC5" transform="translate(0,0)"/>
<path d="" fill="#0575C9" transform="translate(0,0)"/>
<path d="" fill="#0175D4" transform="translate(0,0)"/>
<path d="" fill="#036DC7" transform="translate(0,0)"/>
<path d="" fill="#0275D2" transform="translate(0,0)"/>
<path d="M0 0 C2 1 2 1 2 1 Z " fill="#0470CC" transform="translate(138,8)"/>
<path d="M0 0 C2 1 2 1 2 1 Z " fill="#0078D1" transform="translate(65,5)"/>
<path d="M0 0 C2 1 2 1 2 1 Z " fill="#0A70C1" transform="translate(131,4)"/>
<path d="M0 0 C2 1 2 1 2 1 Z " fill="#0875D2" transform="translate(67,4)"/>
<path d="M0 0 C2 1 2 1 2 1 Z " fill="#0971C4" transform="translate(126,2)"/>
<path d="M0 0 C2 1 2 1 2 1 Z " fill="#0A74CB" transform="translate(72,2)"/>
<path d="M0 0 C2 1 2 1 2 1 Z " fill="#0677D1" transform="translate(74,1)"/>
<path d="" fill="#0A58A4" transform="translate(0,0)"/>
<path d="" fill="#0B59A5" transform="translate(0,0)"/>
<path d="" fill="#0864B2" transform="translate(0,0)"/>
<path d="" fill="#0C5BA6" transform="translate(0,0)"/>
<path d="" fill="#0360AC" transform="translate(0,0)"/>
<path d="" fill="#0D59AD" transform="translate(0,0)"/>
<path d="" fill="#0961B7" transform="translate(0,0)"/>
<path d="" fill="#046AC0" transform="translate(0,0)"/>
<path d="" fill="#026BBE" transform="translate(0,0)"/>
<path d="" fill="#0174CF" transform="translate(0,0)"/>
<path d="" fill="#066CC2" transform="translate(0,0)"/>
<path d="" fill="#0A67C9" transform="translate(0,0)"/>
<path d="" fill="#0276CE" transform="translate(0,0)"/>
<path d="" fill="#0869CE" transform="translate(0,0)"/>
<path d="" fill="#0174D8" transform="translate(0,0)"/>
<path d="" fill="#046EC7" transform="translate(0,0)"/>
<path d="" fill="#0176D2" transform="translate(0,0)"/>
<path d="" fill="#046EC7" transform="translate(0,0)"/>
<path d="" fill="#0069C0" transform="translate(0,0)"/>
<path d="" fill="#0078D3" transform="translate(0,0)"/>
<path d="" fill="#0376D5" transform="translate(0,0)"/>
<path d="" fill="#026FC5" transform="translate(0,0)"/>
<path d="" fill="#0376D5" transform="translate(0,0)"/>
<path d="" fill="#096DBF" transform="translate(0,0)"/>
<path d="" fill="#0276D5" transform="translate(0,0)"/>
<path d="" fill="#086BC4" transform="translate(0,0)"/>
<path d="" fill="#0575D3" transform="translate(0,0)"/>
<path d="" fill="#036DC4" transform="translate(0,0)"/>
<path d="" fill="#0376D3" transform="translate(0,0)"/>
<path d="" fill="#016EC2" transform="translate(0,0)"/>
<path d="" fill="#0276D5" transform="translate(0,0)"/>
<path d="" fill="#016FC9" transform="translate(0,0)"/>
<path d="" fill="#0275DB" transform="translate(0,0)"/>
<path d="" fill="#0276D9" transform="translate(0,0)"/>
<path d="" fill="#0078D3" transform="translate(0,0)"/>
<path d="" fill="#0371C3" transform="translate(0,0)"/>
<path d="" fill="#007AD2" transform="translate(0,0)"/>
<path d="" fill="#0870C6" transform="translate(0,0)"/>
<path d="" fill="#007AD9" transform="translate(0,0)"/>
<path d="" fill="#0173C8" transform="translate(0,0)"/>
<path d="" fill="#057AD7" transform="translate(0,0)"/>
</svg>
